<svg xmlns="http://www.w3.org/2000/svg" width="10.169" height="16" viewBox="0 0 10.169 16" fill="#1b1641"><g transform="translate(0)"><g transform="translate(0)"><path d="M1042.365,623.579h0l.008.023h0a1.145,1.145,0,0,0,.322.457l7.875,6.857a1.143,1.143,0,1,0,1.5-1.725l-5.577-4.852-1.229-1.141,1.228-1.144,5.577-4.852a1.143,1.143,0,1,0-1.5-1.725l-7.88,6.857h-.007a1.15,1.15,0,0,0-.338.525h0a1.229,1.229,0,0,0-.03.125h0A1.142,1.142,0,0,0,1042.365,623.579Z" transform="translate(-1042.297 -615.197)" /></g></g></svg>
