<svg xmlns="http://www.w3.org/2000/svg" width="18.906" height="18.5" viewBox="0 0 18.906 18.5"><g transform="translate(-784 -466.376)"><path d="M8.038,13.262H1.158A1.161,1.161,0,0,1,0,12.1V1.158A1.159,1.159,0,0,1,1.158,0H12.1a1.157,1.157,0,0,1,1.158,1.158V12.1A1.159,1.159,0,0,1,12.1,13.262Zm3.822-1.4V1.4H1.4V11.861Z" transform="translate(789.144 471.115)" fill="#fff" stroke="rgba(0,0,0,0)" stroke-miterlimit="10" stroke-width="1"/><path d="M12.432,10.069v2.362H1.468V1.468H3.31V0h-2.1A1.215,1.215,0,0,0,0,1.213V12.686A1.215,1.215,0,0,0,1.213,13.9H12.686A1.215,1.215,0,0,0,13.9,12.686V10.053Z" transform="translate(797.899 466.376) rotate(90)" fill="#fff"/></g></svg>