<svg xmlns="http://www.w3.org/2000/svg" width="16" height="16" viewBox="0 0 16 16"><path d="M481.155,349.853a.845.845,0,0,0-.845.845v4.613H467.689V342.689h4.654a.845.845,0,0,0,0-1.689H467.4a1.4,1.4,0,0,0-1.4,1.4V355.6a1.4,1.4,0,0,0,1.4,1.4H480.6a1.4,1.4,0,0,0,1.4-1.4V350.7A.845.845,0,0,0,481.155,349.853ZM480.664,341H476.4a.845.845,0,0,0,0,1.689h2.725l-6.653,6.653a.845.845,0,1,0,1.195,1.195l6.645-6.645v2.731a.845.845,0,1,0,1.689,0v-4.288A1.337,1.337,0,0,0,480.664,341Z" transform="translate(-466 -341)" fill="#fff"/></svg>