<svg xmlns="http://www.w3.org/2000/svg" width="24" height="14.71" viewBox="0 0 24 14.71"><g transform="translate(-0.038 -0.34)"><g transform="translate(0.038 0.34)"><path d="M4.951,3.214a10.174,10.174,0,0,1,14.173,0l.471.461a.483.483,0,0,1,0,.694L17.984,5.947a.254.254,0,0,1-.354,0l-.648-.635a7.1,7.1,0,0,0-9.888,0l-.694.68a.254.254,0,0,1-.354,0L4.434,4.414a.483.483,0,0,1,0-.694ZM22.457,6.477l1.434,1.4a.483.483,0,0,1,0,.694l-6.466,6.331a.509.509,0,0,1-.709,0h0l-4.589-4.494a.127.127,0,0,0-.177,0h0L7.36,14.906a.509.509,0,0,1-.709,0h0L.185,8.575a.483.483,0,0,1,0-.694l1.434-1.4a.509.509,0,0,1,.709,0l4.59,4.494a.127.127,0,0,0,.177,0h0l4.589-4.494a.509.509,0,0,1,.709,0h0l4.59,4.494a.127.127,0,0,0,.177,0l4.589-4.493A.509.509,0,0,1,22.457,6.477Z" transform="translate(-0.038 -0.34)" fill="#3b99fc"/></g></g></svg>