<svg xmlns="http://www.w3.org/2000/svg" width="829.244" height="191.101" viewBox="0 0 829.244 191.101">
  <path d="M-490.582-111.661V-289.955h-40.179v109.99L-617.4-289.955h-34.4v178.294h39.928V-221.9l86.887,110.241ZM-427.3-108.9c31.641,0,57.757-18.332,65.793-44.448h-39.677c-3.013,6.78-13.058,11.8-24.107,11.8-20.341,0-29.883-11.3-31.641-24.107h96.681c1.507-49.721-30.888-74.331-67.049-74.331-37.919,0-66.546,27.623-66.546,65.291C-493.846-136.522-466.223-108.9-427.3-108.9Zm-1-100.95c9.794,0,22.1,5.022,26.116,20.09h-53.739C-452.663-201.31-443.371-209.848-428.3-209.848ZM-304.5-108.9c31.641,0,57.757-18.332,65.793-44.448h-39.677c-3.013,6.78-13.058,11.8-24.107,11.8-20.341,0-29.883-11.3-31.641-24.107h96.681c1.507-49.721-30.888-74.331-67.049-74.331-37.919,0-66.546,27.623-66.546,65.291C-371.049-136.522-343.426-108.9-304.5-108.9Zm-1-100.95c9.794,0,22.1,5.022,26.116,20.09H-333.13C-329.866-201.31-320.574-209.848-305.507-209.848Zm123.8,100.95c31.641,0,57.757-18.332,65.793-44.448h-39.677c-3.013,6.78-13.058,11.8-24.107,11.8-20.341,0-29.883-11.3-31.641-24.107h96.681c1.507-49.721-30.888-74.331-67.049-74.331-37.919,0-66.546,27.623-66.546,65.291C-248.252-136.522-220.629-108.9-181.706-108.9Zm-1-100.95c9.794,0,22.1,5.022,26.116,20.09h-53.739C-207.069-201.31-197.777-209.848-182.71-209.848ZM-67.2-108.9c16.825,0,29.13-8.538,34.152-15.318v12.556H4.875V-300H-33.044v75.336c-5.022-6.78-17.327-15.318-34.152-15.318-32.9,0-58.26,29.883-58.26,65.542S-100.092-108.9-67.2-108.9Zm8.538-34.4c-17.076,0-28.628-13.058-28.628-31.139s11.551-31.139,28.628-31.139,28.628,13.058,28.628,31.139S-41.582-143.3-58.658-143.3Zm67.8,31.641H47.063V-300H9.144Zm101.2,2.762c31.641,0,57.757-18.332,65.793-44.448H136.462c-3.013,6.78-13.058,11.8-24.107,11.8-20.341,0-29.883-11.3-31.641-24.107h96.681c1.507-49.721-30.888-74.331-67.049-74.331-37.919,0-66.546,27.623-66.546,65.291C43.8-136.522,71.422-108.9,110.345-108.9Zm-1-100.95c9.794,0,22.1,5.022,26.116,20.09H81.718C84.982-201.31,94.274-209.848,109.341-209.848Z" transform="translate(651.8 300)"/>
</svg>
